<svg version="1.1" viewBox="0.0 0.0 781.7611548556431 128.12073490813648" fill="none" stroke="none" stroke-linecap="square" stroke-miterlimit="10" xmlns:xlink="http://www.w3.org/1999/xlink" xmlns="http://www.w3.org/2000/svg"><clipPath id="p.0"><path d="m0 0l781.76117 0l0 128.12073l-781.76117 0l0 -128.12073z" clip-rule="nonzero"/></clipPath><g clip-path="url(#p.0)"><path fill="#000000" fill-opacity="0.0" d="m0 0l781.76117 0l0 128.12073l-781.76117 0z" fill-rule="evenodd"/><path fill="#000000" fill-opacity="0.0" d="m0 19.698162l781.7638 0l0 88.72441l-781.7638 0z" fill-rule="evenodd"/><path fill="#000000" d="m101.80661 87.65441q1.03125 0 1.625 0.96875q0.609375 0.953125 0.609375 2.640625q0 3.109375 -1.515625 4.953125q-3.84375 4.640625 -7.765625 7.171875q-3.921875 2.515625 -9.28125 2.515625q-5.203125 0 -8.84375 -2.796875q-3.625 -2.8125 -6.90625 -9.609375q-2.640625 -5.4375 -4.171875 -8.03125q-1.515625 -2.609375 -3.0 -3.71875q-1.46875 -1.125 -3.640625 -1.375q-0.3125 1.6875 -1.828125 10.5625q-0.640625 4.0 -0.8125 4.875q-0.796875 4.890625 -3.203125 7.5q-2.390625 2.59375 -7.265625 2.59375q-5.359375 0 -9.484375 -3.15625q-4.125 -3.171875 -6.359375 -8.8125q-2.234375 -5.640625 -2.234375 -12.84375q0 -13.4375 4.671875 -23.187504q4.6875 -9.765625 13.125 -14.921875q8.4375 -5.171875 19.484375 -5.171875q7.671875 0 12.875 2.328125q5.203125 2.3125 7.71875 6.40625q2.515625 4.078125 2.515625 9.1875q0 4.484375 -2.125 8.765629q-2.109375 4.28125 -6.359375 7.5625q-4.234375 3.28125 -10.3125 4.875q3.84375 1.046875 5.921875 3.375q2.078125 2.3125 4.15625 6.78125q2.234375 4.8125 4.4375 7.046875q2.203125 2.234375 5.078125 2.234375q2.5625 0 4.875 -1.71875q2.328125 -1.71875 5.84375 -5.875q0.96875 -1.125 2.171875 -1.125zm-53.921875 -7.359375q-2.71875 0 -3.71875 -1.28125q-1.0 -1.28125 -1.0 -2.875q0 -1.921875 1.234375 -3.03125q1.234375 -1.125 2.84375 -1.125l2.0 0q1.28125 -7.84375 2.390625 -13.531254q1.046875 -5.1875 6.734375 -5.1875q4.546875 0 4.546875 4.078125q0 0.875 -0.078125 1.359375l-2.390625 13.281254q4.3125 -0.25 7.875 -2.078125q3.5625 -1.84375 5.671875 -5.125q2.125 -3.2812538 2.125 -7.437504q0 -5.046875 -3.4375 -7.921875q-3.4375 -2.875 -10.078125 -2.875q-7.84375 0 -13.71875 3.875q-5.875 3.875 -9.15625 11.515625q-3.28125 7.640629 -3.28125 18.609379q0 5.109375 1.03125 8.796875q1.046875 3.671875 2.5625 5.515625q1.515625 1.84375 2.875 1.84375q1.046875 0 1.71875 -1.03125q0.6875 -1.046875 1.09375 -3.375l2.15625 -12.0zm83.75305 7.359375q1.046875 0 1.640625 0.96875q0.609375 0.953125 0.609375 2.640625q0 3.1875 -1.53125 4.953125q-2.953125 3.59375 -8.359375 6.640625q-5.390625 3.046875 -11.5625 3.046875q-8.390625 0 -13.03125 -4.5625q-4.640625 -4.5625 -4.640625 -12.484375q0 -5.515625 2.3125 -10.28125q2.328125 -4.765625 6.4375 -7.5625q4.125 -2.796875 9.328125 -2.796875q4.640625 0 7.4375 2.765625q2.796875 2.75 2.796875 7.46875q0 5.53125 -3.953125 9.5q-3.953125 3.953125 -13.40625 6.265625q2.0 3.6875 7.609375 3.6875q3.59375 0 8.1875 -2.515625q4.609375 -2.53125 7.96875 -6.609375q0.953125 -1.125 2.15625 -1.125zm-20.15625 -11.59375q-2.953125 0 -5.0 3.4375q-2.046875 3.4375 -2.046875 8.3125l0 0.171875q4.734375 -1.125 7.453125 -3.359375q2.71875 -2.25 2.71875 -5.203125q0 -1.515625 -0.84375 -2.4375q-0.84375 -0.921875 -2.28125 -0.921875zm25.368103 29.84375q-4.96875 0 -7.9375 -3.59375q-2.953125 -3.609375 -2.953125 -9.453125q0 -6.40625 2.953125 -12.125q2.96875 -5.71875 7.890625 -9.1875q4.921875 -3.484375 10.4375 -3.484375q1.765625 0 2.359375 0.6875q0.609375 0.671875 1.0 2.4375q1.6875 -0.328125 3.515625 -0.328125q3.921875 0 3.921875 2.796875q0 1.6875 -1.1875 8.0q-1.84375 9.203125 -1.84375 12.796875q0 1.203125 0.59375 1.921875q0.609375 0.71875 1.5625 0.71875q1.515625 0 3.671875 -1.953125q2.171875 -1.953125 5.84375 -6.359375q0.96875 -1.125 2.171875 -1.125q1.03125 0 1.625 0.96875q0.609375 0.953125 0.609375 2.640625q0 3.1875 -1.515625 4.953125q-3.28125 4.078125 -6.96875 6.890625q-3.671875 2.796875 -7.125 2.796875q-2.625 0 -4.828125 -1.796875q-2.203125 -1.8125 -3.328125 -4.921875q-4.15625 6.71875 -10.46875 6.71875zm2.875 -8.09375q1.75 0 3.34375 -2.078125q1.609375 -2.078125 2.328125 -5.515625l2.96875 -14.71875q-3.359375 0.078125 -6.203125 2.515625q-2.84375 2.4375 -4.53125 6.4375q-1.671875 4.0 -1.671875 8.484375q0 2.484375 1.0 3.6875q1.0 1.1875 2.765625 1.1875zm40.16246 8.09375q-7.84375 0 -12.203125 -4.4375q-4.359375 -4.453125 -4.359375 -11.734375q0 -6.46875 2.5625 -11.34375q2.5625 -4.890625 6.640625 -7.53125q4.078125 -2.640625 8.546875 -2.640625q4.40625 0 6.84375 2.609375q2.4375 2.59375 2.4375 6.671875q0 3.359375 -1.484375 5.6875q-1.46875 2.3125 -3.875 2.3125q-1.515625 0 -2.4375 -0.71875q-0.921875 -0.71875 -0.921875 -2.0q0 -0.5625 0.15625 -1.28125q0.171875 -0.71875 0.25 -1.046875q0.40625 -1.1875 0.40625 -2.234375q0 -1.03125 -0.53125 -1.59375q-0.515625 -0.5625 -1.46875 -0.5625q-1.84375 0 -3.453125 1.640625q-1.59375 1.640625 -2.5625 4.4375q-0.953125 2.796875 -0.953125 6.15625q0 9.28125 8.078125 9.28125q3.28125 0 7.078125 -2.1875q3.8125 -2.203125 7.484375 -6.609375q0.953125 -1.125 2.15625 -1.125q1.046875 0 1.640625 0.96875q0.609375 0.953125 0.609375 2.640625q0 3.03125 -1.53125 4.953125q-3.75 4.640625 -9.0 7.171875q-5.234375 2.515625 -10.109375 2.515625zm27.76184 -30.09375q-0.171875 4.0 -0.171875 6.25q0 5.75 0.59375 9.0q0.609375 3.234375 2.0 4.640625q1.40625 1.390625 3.890625 1.390625q1.28125 0 3.03125 -0.796875q1.765625 -0.796875 3.203125 -2.078125q0.890625 -0.796875 1.765625 -0.796875q0.953125 0 1.546875 1.078125q0.609375 1.078125 0.609375 2.59375q0 1.53125 -0.609375 2.96875q-0.59375 1.4375 -1.78125 2.390625q-4.171875 3.453125 -9.4375 3.453125q-7.609375 0 -11.125 -6.359375q-3.515625 -6.359375 -3.515625 -16.609375q0 -3.515625 0.234375 -7.125l-3.125 0q-2.390625 0 -3.234375 -0.875q-0.84375 -0.875 -0.84375 -2.796875q0 -4.484375 3.609375 -4.484375l4.546875 0q1.359375 -8.796879 4.15625 -16.078129q2.8125 -7.28125 6.765625 -11.59375q3.96875 -4.328125 8.53125 -4.328125q3.359375 0 5.265625 2.96875q1.921875 2.953125 1.921875 7.4375q0 12.390625 -10.390625 21.593754l8.953125 0q1.28125 0 1.84375 0.5625q0.5625 0.5625 0.5625 2.078125q0 5.515625 -9.046875 5.515625l-9.75 0zm8.46875 -32.468754q-1.203125 0 -2.6875 3.0q-1.46875 3.0 -2.796875 8.328125q-1.3125 5.3125 -2.1875 11.781254q4.71875 -4.078129 7.078125 -9.156254q2.359375 -5.078125 2.359375 -9.234375q0 -4.71875 -1.765625 -4.71875zm107.208694 44.312504q1.03125 0 1.625 0.96875q0.609375 0.953125 0.609375 2.640625q0 3.109375 -1.515625 4.953125q-3.84375 4.640625 -7.765625 7.171875q-3.921875 2.515625 -9.28125 2.515625q-5.203125 0 -8.84375 -2.796875q-3.625 -2.8125 -6.90625 -9.609375q-2.640625 -5.4375 -4.171875 -8.03125q-1.515625 -2.609375 -3.0 -3.71875q-1.46875 -1.125 -3.640625 -1.375q-0.3125 1.6875 -1.828125 10.5625q-0.640625 4.0 -0.8125 4.875q-0.796875 4.890625 -3.203125 7.5q-2.390625 2.59375 -7.265625 2.59375q-5.359375 0 -9.484375 -3.15625q-4.125 -3.171875 -6.359375 -8.8125q-2.234375 -5.640625 -2.234375 -12.84375q0 -13.4375 4.671875 -23.187504q4.6875 -9.765625 13.125 -14.921875q8.4375 -5.171875 19.484375 -5.171875q7.671875 0 12.875 2.328125q5.203125 2.3125 7.71875 6.40625q2.515625 4.078125 2.515625 9.1875q0 4.484375 -2.125 8.765629q-2.109375 4.28125 -6.359375 7.5625q-4.234375 3.28125 -10.3125 4.875q3.84375 1.046875 5.921875 3.375q2.078125 2.3125 4.15625 6.78125q2.234375 4.8125 4.4375 7.046875q2.203125 2.234375 5.078125 2.234375q2.5625 0 4.875 -1.71875q2.328125 -1.71875 5.84375 -5.875q0.96875 -1.125 2.171875 -1.125zm-53.921875 -7.359375q-2.71875 0 -3.71875 -1.28125q-1.0 -1.28125 -1.0 -2.875q0 -1.921875 1.234375 -3.03125q1.234375 -1.125 2.84375 -1.125l2.0 0q1.28125 -7.84375 2.390625 -13.531254q1.046875 -5.1875 6.734375 -5.1875q4.546875 0 4.546875 4.078125q0 0.875 -0.078125 1.359375l-2.390625 13.281254q4.3125 -0.25 7.875 -2.078125q3.5625 -1.84375 5.671875 -5.125q2.125 -3.2812538 2.125 -7.437504q0 -5.046875 -3.4375 -7.921875q-3.4375 -2.875 -10.078125 -2.875q-7.84375 0 -13.71875 3.875q-5.875 3.875 -9.15625 11.515625q-3.28125 7.640629 -3.28125 18.609379q0 5.109375 1.03125 8.796875q1.046875 3.671875 2.5625 5.515625q1.515625 1.84375 2.875 1.84375q1.046875 0 1.71875 -1.03125q0.6875 -1.046875 1.09375 -3.375l2.15625 -12.0zm83.75305 7.359375q1.046875 0 1.640625 0.96875q0.609375 0.953125 0.609375 2.640625q0 3.1875 -1.53125 4.953125q-2.953125 3.59375 -8.359375 6.640625q-5.390625 3.046875 -11.5625 3.046875q-8.390625 0 -13.03125 -4.5625q-4.640625 -4.5625 -4.640625 -12.484375q0 -5.515625 2.3125 -10.28125q2.328125 -4.765625 6.4375 -7.5625q4.125 -2.796875 9.328125 -2.796875q4.640625 0 7.4375 2.765625q2.796875 2.75 2.796875 7.46875q0 5.53125 -3.953125 9.5q-3.953125 3.953125 -13.40625 6.265625q2.0 3.6875 7.609375 3.6875q3.59375 0 8.1875 -2.515625q4.609375 -2.53125 7.96875 -6.609375q0.953125 -1.125 2.15625 -1.125zm-20.15625 -11.59375q-2.953125 0 -5.0 3.4375q-2.046875 3.4375 -2.046875 8.3125l0 0.171875q4.734375 -1.125 7.453125 -3.359375q2.71875 -2.25 2.71875 -5.203125q0 -1.515625 -0.84375 -2.4375q-0.84375 -0.921875 -2.28125 -0.921875zm21.596222 29.84375q-3.03125 0 -4.28125 -3.203125q-1.234375 -3.203125 -1.234375 -10.25q0 -10.390625 2.953125 -19.75q0.734375 -2.328125 2.359375 -3.40625q1.640625 -1.078125 4.609375 -1.078125q1.59375 0 2.234375 0.40625q0.640625 0.390625 0.640625 1.515625q0 1.28125 -1.203125 5.765625q-0.796875 3.1875 -1.28125 5.59375q-0.46875 2.40625 -0.796875 5.921875q2.640625 -6.875 5.921875 -11.1875q3.28125 -4.328125 6.4375 -6.171875q3.171875 -1.84375 5.8125 -1.84375q5.1875 0 5.1875 5.203125q0 3.125 -1.75 11.28125q-1.53125 6.953125 -1.53125 9.203125q0 3.1875 2.328125 3.1875q1.59375 0 3.796875 -1.953125q2.203125 -1.953125 5.875 -6.359375q0.96875 -1.125 2.171875 -1.125q1.03125 0 1.625 0.96875q0.609375 0.953125 0.609375 2.640625q0 3.1875 -1.515625 4.953125q-3.4375 4.234375 -7.40625 6.96875q-3.953125 2.71875 -9.0 2.71875q-4.078125 0 -6.15625 -2.359375q-2.078125 -2.359375 -2.078125 -6.84375q0 -2.25 1.109375 -8.0q1.046875 -5.046875 1.046875 -6.96875q0 -1.28125 -0.875 -1.28125q-1.046875 0 -2.9375 2.6875q-1.875 2.671875 -3.828125 7.078125q-1.953125 4.40625 -3.15625 9.28125q-0.890625 3.765625 -2.046875 5.09375q-1.15625 1.3125 -3.640625 1.3125zm69.67996 -18.25q1.046875 0 1.640625 0.96875q0.609375 0.953125 0.609375 2.640625q0 3.1875 -1.53125 4.953125q-3.4375 4.234375 -7.515625 6.96875q-4.078125 2.71875 -9.359375 2.71875q-16.3125 0 -16.3125 -22.96875q0 -3.515625 0.234375 -7.125l-3.125 0q-2.390625 0 -3.234375 -0.875q-0.84375 -0.875 -0.84375 -2.796875q0 -4.484375 3.609375 -4.484375l4.546875 0q1.359375 -8.796879 4.15625 -16.078129q2.8125 -7.28125 6.765625 -11.59375q3.96875 -4.328125 8.53125 -4.328125q3.359375 0 5.265625 2.96875q1.921875 2.953125 1.921875 7.4375q0 12.390625 -10.390625 21.593754l8.953125 0q1.28125 0 1.84375 0.5625q0.5625 0.5625 0.5625 2.078125q0 5.515625 -9.046875 5.515625l-9.75 0q-0.171875 4.0 -0.171875 6.25q0 8.3125 1.953125 11.671875q1.96875 3.359375 6.21875 3.359375q3.4375 0 6.078125 -2.078125q2.640625 -2.078125 6.234375 -6.234375q0.953125 -1.125 2.15625 -1.125zm-14.0 -44.312504q-1.203125 0 -2.6875 3.0q-1.46875 3.0 -2.796875 8.328125q-1.3125 5.3125 -2.1875 11.781254q4.71875 -4.078129 7.078125 -9.156254q2.359375 -5.078125 2.359375 -9.234375q0 -4.71875 -1.765625 -4.71875zm19.611847 62.562504q-4.96875 0 -7.9375 -3.59375q-2.953125 -3.609375 -2.953125 -9.453125q0 -6.40625 2.953125 -12.125q2.96875 -5.71875 7.890625 -9.1875q4.921875 -3.484375 10.4375 -3.484375q1.765625 0 2.359375 0.6875q0.609375 0.671875 1.0 2.4375q1.6875 -0.328125 3.515625 -0.328125q3.921875 0 3.921875 2.796875q0 1.6875 -1.1875 8.0q-1.84375 9.203125 -1.84375 12.796875q0 1.203125 0.59375 1.921875q0.609375 0.71875 1.5625 0.71875q1.515625 0 3.671875 -1.953125q2.171875 -1.953125 5.84375 -6.359375q0.96875 -1.125 2.171875 -1.125q1.03125 0 1.625 0.96875q0.609375 0.953125 0.609375 2.640625q0 3.1875 -1.515625 4.953125q-3.28125 4.078125 -6.96875 6.890625q-3.671875 2.796875 -7.125 2.796875q-2.625 0 -4.828125 -1.796875q-2.203125 -1.8125 -3.328125 -4.921875q-4.15625 6.71875 -10.46875 6.71875zm2.875 -8.09375q1.75 0 3.34375 -2.078125q1.609375 -2.078125 2.328125 -5.515625l2.96875 -14.71875q-3.359375 0.078125 -6.203125 2.515625q-2.84375 2.4375 -4.53125 6.4375q-1.671875 4.0 -1.671875 8.484375q0 2.484375 1.0 3.6875q1.0 1.1875 2.765625 1.1875zm47.99057 -3.59375q0.890625 -0.796875 1.765625 -0.796875q0.96875 0 1.5625 1.078125q0.59375 1.078125 0.59375 2.59375q0 3.359375 -2.390625 5.359375q-4.171875 3.453125 -9.4375 3.453125q-7.609375 0 -11.125 -6.359375q-3.515625 -6.359375 -3.515625 -16.609375q0 -9.75 2.515625 -22.234379q2.515625 -12.484375 7.4375 -21.4375q4.921875 -8.96875 11.71875 -8.96875q3.84375 0 6.03125 3.5625q2.203125 3.5625 2.203125 10.203125q0 9.515625 -5.234375 22.078129q-5.234375 12.5625 -14.28125 24.796875q0.5625 3.28125 2.0 4.71875q1.4375 1.4375 3.921875 1.4375q1.359375 0 3.078125 -0.796875q1.71875 -0.796875 3.15625 -2.078125zm-2.640625 -56.000004q-1.828125 0 -4.15625 6.640625q-2.3125 6.640625 -4.078125 16.484375q-1.765625 9.843754 -1.921875 18.875004q5.6875 -9.359375 9.046875 -18.750004q3.359375 -9.40625 3.359375 -17.171875q0 -6.078125 -2.25 -6.078125zm44.889984 67.6875q-2.96875 0 -4.25 -1.3125q-1.265625 -1.328125 -1.265625 -5.015625q0 -2.484375 0.515625 -6.359375q0.515625 -3.875 1.71875 -10.671875q2.078125 -12.5625 3.28125 -21.765629q0.71875 -5.765625 0.71875 -9.59375q0 -3.609375 -2.640625 -3.609375q-2.078125 0 -5.0 2.125q-2.921875 2.109375 -6.4375305 6.75q-1.125 1.53125 -2.484375 1.53125q-1.125 0 -1.96875 -1.078125q-0.828125 -1.09375 -0.828125 -2.453125q0 -1.265625 0.515625 -2.578125q0.515625 -1.328125 1.71875 -3.015625q3.84375 -5.359375 8.5625305 -8.28125q4.71875 -2.921875 9.4375 -2.921875q4.40625 0 6.765625 2.8125q2.359375 2.796875 2.359375 8.15625q0 2.15625 -0.40625 5.078125q-0.390625 2.921875 -0.71875 4.765625q-0.3125 1.828125 -0.46875 2.546875q4.546875 -13.03125 10.21875 -18.1875q5.6875 -5.171875 12.5 -5.171875q5.1875 0 8.1875 3.6875q3.0 3.671875 3.0 10.390625q0 2.640625 -0.71875 6.5625q4.0 -11.03125 9.359375 -15.828125q5.359375 -4.8125 12.328125 -4.8125q5.59375 0 8.59375 3.609375q3.0 3.59375 3.0 10.078125q0 3.515625 -1.03125 8.5625l-4.890625 22.875004q-0.796875 4.0 -0.796875 6.875q0 3.359375 1.5625 5.046875q1.5625 1.671875 4.359375 1.671875q2.640625 0 5.15625 -1.75q2.53125 -1.765625 5.96875 -5.84375q0.953125 -1.125 2.15625 -1.125q1.046875 0 1.640625 0.96875q0.59375 0.953125 0.59375 2.640625q0 3.109375 -1.515625 4.953125q-4.15625 5.046875 -8.234375 7.375q-4.078125 2.3125 -8.5625 2.3125q-6.796875 0 -10.640625 -4.046875q-3.84375 -4.046875 -3.84375 -10.84375q0 -4.71875 1.921875 -13.671875l3.203125 -14.640629q0.15625 -0.71875 0.546875 -2.5625q0.40625 -1.84375 0.640625 -3.484375q0.25 -1.640625 0.25 -3.234375q0 -2.796875 -1.078125 -4.203125q-1.078125 -1.40625 -3.078125 -1.40625q-3.765625 0 -7.890625 4.84375q-4.109375 4.84375 -7.828125 16.046879q-3.71875 11.203125 -6.046875 29.109375q-0.5625 4.8125 -1.96875 6.453125q-1.390625 1.640625 -4.515625 1.640625q-2.71875 0 -3.953125 -1.28125q-1.234375 -1.28125 -1.234375 -4.8125q0 -3.265625 0.875 -8.578125q0.875 -5.328125 2.234375 -12.53125q3.6875 -19.359379 3.6875 -24.968754q0 -3.03125 -1.171875 -4.46875q-1.15625 -1.453125 -3.46875 -1.453125q-3.921875 0 -8.09375 4.453125q-4.15625 4.4375 -8.109375 15.765629q-3.953125 11.3125 -6.59375 30.59375q-0.5625 4.078125 -1.640625 5.6875q-1.078125 1.59375 -4.203125 1.59375zm124.63806 -24.96875q1.046875 0 1.59375 1.046875q0.5625 1.03125 0.5625 2.640625q0 3.828125 -2.3125 4.5625q-4.796875 1.671875 -10.5625 1.90625q-1.515625 6.71875 -6.0 10.765625q-4.484375 4.046875 -10.15625 4.046875q-4.8125 0 -8.21875 -2.3125q-3.390625 -2.328125 -5.15625 -6.171875q-1.75 -3.84375 -1.75 -8.328125q0 -6.078125 2.3125 -10.828125q2.328125 -4.765625 6.40625 -7.4375q4.078125 -2.6875 9.046875 -2.6875q6.078125 0 9.796875 4.203125q3.71875 4.203125 4.359375 10.359375q3.75 -0.25 8.953125 -1.609375q0.640625 -0.15625 1.125 -0.15625zm-26.234375 16.484375q2.546875 0 4.421875 -2.078125q1.890625 -2.078125 2.53125 -6.0q-2.484375 -1.6875 -3.8125 -4.40625q-1.3125 -2.71875 -1.3125 -5.75q0 -1.28125 0.25 -2.5625l-0.40625 0q-3.203125 0 -5.328125 3.078125q-2.109375 3.078125 -2.109375 8.671875q0 4.40625 1.71875 6.734375q1.71875 2.3125 4.046875 2.3125zm61.911255 -16.234375q0.25 -0.09375 0.796875 -0.09375q1.203125 0 1.84375 0.8125q0.640625 0.796875 0.640625 2.15625q0 2.484375 -0.96875 3.890625q-0.953125 1.390625 -2.875 2.03125q-3.671875 1.203125 -7.828125 1.203125q-3.53125 0 -6.640625 -0.96875q-2.328125 3.765625 -5.125 7.765625q-3.203125 4.5625 -5.53125 6.25q-2.3125 1.671875 -5.265625 1.671875q-3.28125 0 -5.171875 -2.5625q-1.875 -2.5625 -2.359375 -8.078125q-0.953125 -11.203125 -0.953125 -19.609375l0 -2.796875q0.078125 -2.640625 1.4375 -3.671875q1.359375 -1.046875 4.078125 -1.046875q2.078125 0 3.078125 0.921875q1.0 0.921875 1.0 3.078125q0 9.203125 1.125 23.921875q4.796875 -7.125 7.203125 -11.359375q-1.203125 -2.328125 -1.203125 -5.515625q0 -2.734375 1.203125 -5.28125q1.203125 -2.5625 3.28125 -4.15625q2.078125 -1.609375 4.71875 -1.609375q2.3125 0 3.75 1.640625q1.453125 1.640625 1.453125 4.765625q0 3.59375 -1.921875 8.234375q3.03125 -0.15625 8.078125 -1.203125l2.15625 -0.390625zm6.794922 -18.250004q-3.359375 0 -5.046875 -1.5625q-1.671875 -1.5625 -1.671875 -4.359375q0 -2.796875 2.203125 -4.671875q2.203125 -1.890625 5.484375 -1.890625q2.953125 0 4.796875 1.453125q1.84375 1.4375 1.84375 4.078125q0 3.203125 -2.078125 5.078125q-2.078125 1.875 -5.53125 1.875zm-0.625 42.968754q-5.203125 0 -7.5625 -3.671875q-2.359375 -3.6875 -2.359375 -9.78125q0 -3.59375 0.90625 -9.234375q0.921875 -5.640625 2.375 -10.515625q0.71875 -2.5625 1.90625 -3.515625q1.203125 -0.96875 3.84375 -0.96875q4.078125 0 4.078125 2.71875q0 2.0 -1.515625 9.28125q-1.921875 8.796875 -1.921875 11.921875q0 2.40625 0.640625 3.6875q0.640625 1.265625 2.15625 1.265625q1.453125 0 3.609375 -2.0q2.15625 -2.0 5.75 -6.3125q0.96875 -1.125 2.171875 -1.125q1.03125 0 1.625 0.96875q0.609375 0.953125 0.609375 2.640625q0 3.1875 -1.515625 4.953125q-7.921875 9.6875 -14.796875 9.6875zm45.50818 -18.25q1.046875 0 1.640625 0.96875q0.609375 0.953125 0.609375 2.640625q0 3.1875 -1.53125 4.953125q-2.953125 3.59375 -8.359375 6.640625q-5.390625 3.046875 -11.5625 3.046875q-8.390625 0 -13.03125 -4.5625q-4.640625 -4.5625 -4.640625 -12.484375q0 -5.515625 2.3125 -10.28125q2.328125 -4.765625 6.4375 -7.5625q4.125 -2.796875 9.328125 -2.796875q4.640625 0 7.4375 2.765625q2.796875 2.75 2.796875 7.46875q0 5.53125 -3.953125 9.5q-3.953125 3.953125 -13.40625 6.265625q2.0 3.6875 7.609375 3.6875q3.59375 0 8.1875 -2.515625q4.609375 -2.53125 7.96875 -6.609375q0.953125 -1.125 2.15625 -1.125zm-20.15625 -11.59375q-2.953125 0 -5.0 3.4375q-2.046875 3.4375 -2.046875 8.3125l0 0.171875q4.734375 -1.125 7.453125 -3.359375q2.71875 -2.25 2.71875 -5.203125q0 -1.515625 -0.84375 -2.4375q-0.84375 -0.921875 -2.28125 -0.921875zm30.799316 31.59375q-4.15625 0 -6.359375 -1.921875q-2.203125 -1.921875 -2.203125 -4.3125q0 -2.078125 1.515625 -3.59375q1.53125 -1.53125 4.484375 -1.53125q1.046875 0 2.4375 0.203125q1.40625 0.203125 2.125 0.28125q-0.078125 -2.078125 -0.921875 -3.921875q-0.84375 -1.84375 -2.125 -3.5625q-1.265625 -1.71875 -2.390625 -3.0q-2.484375 4.71875 -4.921875 7.84375q-2.4375 3.125 -5.3125 5.921875q-1.453125 1.4375 -3.046875 1.4375q-1.28125 0 -2.078125 -0.921875q-0.796875 -0.921875 -0.796875 -2.28125q0 -1.59375 1.109375 -2.953125l1.046875 -1.28125q4.40625 -5.4375 6.640625 -8.96875q1.4375 -2.3125 2.90625 -5.515625q1.484375 -3.203125 3.890625 -8.71875q1.515625 -3.515625 6.328125 -3.515625q2.234375 0 3.109375 0.40625q0.890625 0.390625 0.890625 1.265625q0 0.484375 -0.328125 1.53125q-0.3125 1.03125 -0.875 2.078125q-1.4375 2.875 -1.4375 4.875q0 1.203125 0.828125 2.640625q0.84375 1.4375 2.609375 3.59375q2.5625 3.359375 3.875 5.71875q1.328125 2.359375 1.328125 5.171875q0 3.359375 -1.5625 6.359375q-1.5625 3.0 -4.375 4.828125q-2.796875 1.84375 -6.390625 1.84375z" fill-rule="nonzero"/></g></svg>